<svg width="196" height="57" viewBox="0 0 196 57" fill="none" xmlns="http://www.w3.org/2000/svg">
<path d="M195.483 50.7875C195.483 53.8916 192.976 56.4226 189.848 56.4226H5.63503C2.53098 56.4226 0 53.9155 0 50.7875V5.94606C0 2.84202 2.53098 0.311035 5.63503 0.311035H189.848C192.952 0.311035 195.483 2.84202 195.483 5.94606V50.7875Z" fill="white"/>
<path d="M194.483 50.7875C194.483 53.3421 192.421 55.4226 189.848 55.4226H5.63503C3.08051 55.4226 1 53.3604 1 50.7875V5.94606C1 3.39431 3.08327 1.31104 5.63503 1.31104H189.848C192.4 1.31104 194.483 3.39431 194.483 5.94606V50.7875Z" fill="url(#paint0_angular)" stroke="url(#paint1_linear)" stroke-width="2"/>
<path d="M42.9313 28.0562C42.8835 23.3285 46.7994 21.0124 46.9904 20.9169C44.7698 17.6934 41.3315 17.2398 40.1138 17.2159C37.2246 16.9055 34.431 18.935 32.9506 18.935C31.4463 18.935 29.178 17.2398 26.7425 17.2875C23.5907 17.3353 20.6538 19.1499 19.0541 21.9913C15.7351 27.7458 18.2183 36.2222 21.394 40.8782C22.9938 43.1705 24.8562 45.7014 27.2917 45.6059C29.6794 45.5104 30.5629 44.0778 33.452 44.0778C36.2934 44.0778 37.153 45.6059 39.6362 45.5343C42.1911 45.4865 43.8148 43.2421 45.3429 40.9499C47.1814 38.3473 47.9216 35.7685 47.9455 35.6252C47.8978 35.6014 42.9791 33.7151 42.9313 28.0562Z" fill="white"/>
<path d="M38.2275 14.1358C39.5169 12.536 40.4003 10.3393 40.1377 8.14258C38.2752 8.21421 35.9592 9.43195 34.622 11.0078C33.4282 12.3927 32.3776 14.6611 32.6641 16.7861C34.7653 16.9294 36.8904 15.7117 38.2275 14.1358Z" fill="white"/>
<path d="M77.5056 45.2479H74.1628L72.3481 39.5174H65.9729L64.2299 45.2479H60.9825L67.2623 25.7163H71.1543L77.5056 45.2479ZM71.7751 37.1058L70.1275 31.996C69.9604 31.4707 69.6261 30.253 69.1486 28.3189H69.1008C68.9098 29.1546 68.5994 30.3724 68.1696 31.996L66.5459 37.1058H71.7751Z" fill="white"/>
<path d="M93.6466 38.0368C93.6466 40.4245 93.0019 42.3347 91.6887 43.7195C90.5187 44.9612 89.0622 45.582 87.343 45.582C85.4806 45.582 84.1435 44.9134 83.3317 43.5763V50.9782H80.2037V35.8162C80.2037 34.3119 80.156 32.7599 80.0844 31.184H82.8302L82.9974 33.4285H83.0451C84.0957 31.757 85.6716 30.8975 87.7967 30.8975C89.4681 30.8975 90.853 31.5421 91.9513 32.8793C93.0736 34.1686 93.6466 35.8878 93.6466 38.0368ZM90.4471 38.1561C90.4471 36.7951 90.1367 35.649 89.5159 34.7656C88.8473 33.8344 87.94 33.3807 86.7939 33.3807C86.0298 33.3807 85.3135 33.6433 84.6927 34.1448C84.0718 34.6701 83.6421 35.3386 83.451 36.1505C83.3555 36.5325 83.3078 36.8429 83.3078 37.1055V39.4455C83.3078 40.4722 83.6182 41.3318 84.239 42.0481C84.8598 42.7645 85.6955 43.0987 86.6983 43.0987C87.8683 43.0987 88.7995 42.6451 89.4442 41.7377C90.1128 40.8304 90.4471 39.6365 90.4471 38.1561Z" fill="white"/>
<path d="M109.835 38.0368C109.835 40.4245 109.191 42.3347 107.877 43.7195C106.707 44.9612 105.251 45.582 103.532 45.582C101.669 45.582 100.332 44.9134 99.5204 43.5763V50.9782H96.3925V35.8162C96.3925 34.3119 96.3447 32.7599 96.2731 31.184H99.019L99.1861 33.4285H99.2338C100.284 31.757 101.86 30.8975 103.985 30.8975C105.657 30.8975 107.042 31.5421 108.14 32.8793C109.286 34.1686 109.835 35.8878 109.835 38.0368ZM106.66 38.1561C106.66 36.7951 106.349 35.649 105.728 34.7656C105.06 33.8344 104.153 33.3807 103.006 33.3807C102.242 33.3807 101.526 33.6433 100.905 34.1448C100.284 34.6701 99.8785 35.3386 99.6636 36.1505C99.5681 36.5325 99.5204 36.8429 99.5204 37.1055V39.4455C99.5204 40.4722 99.8308 41.3318 100.452 42.0481C101.072 42.7406 101.908 43.0987 102.911 43.0987C104.081 43.0987 105.012 42.6451 105.657 41.7377C106.325 40.8304 106.66 39.6365 106.66 38.1561Z" fill="white"/>
<path d="M127.958 39.78C127.958 41.4514 127.385 42.7885 126.215 43.8391C124.95 44.9852 123.159 45.5583 120.891 45.5583C118.789 45.5583 117.094 45.1524 115.829 44.3406L116.545 41.7379C117.906 42.5498 119.434 42.9557 121.058 42.9557C122.228 42.9557 123.159 42.693 123.804 42.1677C124.448 41.6424 124.783 40.9261 124.783 40.0427C124.783 39.2547 124.52 38.5861 123.971 38.037C123.422 37.4878 122.538 36.9864 121.273 36.5327C117.858 35.2672 116.139 33.3809 116.139 30.9454C116.139 29.3457 116.736 28.0324 117.954 27.0057C119.171 25.979 120.771 25.4775 122.753 25.4775C124.52 25.4775 126.024 25.7879 127.194 26.4088L126.406 28.9636C125.308 28.3667 124.042 28.0563 122.658 28.0563C121.559 28.0563 120.676 28.3189 120.079 28.8681C119.553 29.3457 119.291 29.9426 119.291 30.635C119.291 31.3991 119.601 32.0438 120.198 32.5452C120.723 32.9989 121.655 33.5003 123.04 34.0495C124.711 34.718 125.953 35.506 126.741 36.4133C127.576 37.2968 127.958 38.419 127.958 39.78Z" fill="white"/>
<path d="M138.345 33.5242H134.883V40.3531C134.883 42.0962 135.48 42.9558 136.697 42.9558C137.246 42.9558 137.724 42.908 138.082 42.8125L138.178 45.2002C137.557 45.439 136.745 45.5584 135.742 45.5584C134.501 45.5584 133.546 45.1763 132.853 44.4361C132.161 43.6721 131.802 42.4066 131.802 40.6397V33.5242H129.749V31.1843H131.802V28.6055L134.883 27.6743V31.1843H138.345C138.345 31.1604 138.345 33.5242 138.345 33.5242Z" fill="white"/>
<path d="M153.889 38.1084C153.889 40.2812 153.268 42.0481 152.027 43.433C150.737 44.8657 149.018 45.582 146.869 45.582C144.792 45.582 143.144 44.8895 141.926 43.5285C140.709 42.1675 140.088 40.4245 140.088 38.3472C140.088 36.1743 140.733 34.3835 141.998 32.9748C143.264 31.5899 144.983 30.8975 147.108 30.8975C149.185 30.8975 150.833 31.5899 152.098 32.9509C153.268 34.2642 153.889 35.9833 153.889 38.1084ZM150.642 38.18C150.642 36.8906 150.355 35.7923 149.806 34.8611C149.161 33.7389 148.206 33.1897 146.988 33.1897C145.723 33.1897 144.768 33.7389 144.123 34.8611C143.574 35.7923 143.287 36.9145 143.287 38.2517C143.287 39.541 143.574 40.6633 144.123 41.5706C144.792 42.6928 145.747 43.242 146.965 43.242C148.158 43.242 149.09 42.6689 149.782 41.5467C150.331 40.5677 150.642 39.4694 150.642 38.18Z" fill="white"/>
<path d="M164.061 33.9303C163.75 33.8826 163.416 33.8348 163.082 33.8348C161.983 33.8348 161.124 34.2407 160.527 35.0764C160.001 35.8166 159.739 36.7478 159.739 37.8701V45.272H156.611V35.6256C156.611 34.0019 156.587 32.5216 156.515 31.1844H159.237L159.357 33.8826H159.452C159.787 32.9513 160.312 32.2112 161.028 31.6381C161.721 31.1367 162.485 30.874 163.297 30.874C163.583 30.874 163.846 30.8979 164.084 30.9218L164.061 33.9303Z" fill="white"/>
<path d="M178.053 37.5356C178.053 38.0848 178.005 38.5623 177.933 38.9444H168.55C168.573 40.3293 169.051 41.4037 169.911 42.1439C170.699 42.7886 171.725 43.1229 172.991 43.1229C174.376 43.1229 175.641 42.908 176.787 42.4543L177.289 44.6272C175.951 45.2002 174.376 45.4868 172.561 45.4868C170.388 45.4868 168.669 44.8421 167.403 43.5527C166.162 42.2633 165.541 40.5442 165.541 38.3713C165.541 36.2463 166.114 34.4793 167.284 33.0706C168.502 31.5663 170.149 30.8022 172.203 30.8022C174.232 30.8022 175.76 31.5663 176.811 33.0706C177.647 34.3122 178.053 35.7926 178.053 37.5356ZM175.068 36.7238C175.092 35.7926 174.877 35.0046 174.471 34.3122C173.922 33.4287 173.086 32.999 171.988 32.999C170.961 32.999 170.125 33.4287 169.505 34.2644C168.979 34.933 168.669 35.7448 168.573 36.6999L175.068 36.7238Z" fill="white"/>
<path d="M70.2707 18.7202H68.6232L67.7158 15.9027H64.5879L63.7283 18.7202H62.1285L65.2087 9.12158H67.1189L70.2707 18.7202ZM67.477 14.7327L66.6652 12.2256C66.5697 11.963 66.4264 11.366 66.1877 10.411H66.1638C66.0683 10.8169 65.925 11.4138 65.7101 12.2256L64.9222 14.7327H67.477Z" fill="white"/>
<path d="M78.0068 11.7959L75.3803 18.7203H73.8761L71.3451 11.7959H72.9926L74.1865 15.4491C74.3775 16.0699 74.5446 16.643 74.6879 17.1922H74.7357C74.8551 16.6907 75.0222 16.1177 75.2371 15.4491L76.4071 11.7959C76.3832 11.7959 78.0068 11.7959 78.0068 11.7959Z" fill="white"/>
<path d="M83.5942 18.7201L83.4749 17.9322H83.4271C82.9496 18.5768 82.281 18.8872 81.3975 18.8872C80.1559 18.8872 79.2725 18.0277 79.2725 16.8577C79.2725 15.1385 80.7528 14.2551 83.3077 14.2551V14.1357C83.3077 13.2283 82.8302 12.7747 81.8751 12.7747C81.1826 12.7747 80.5857 12.9418 80.0604 13.3L79.75 12.2971C80.3947 11.8912 81.1826 11.7002 82.1377 11.7002C83.9524 11.7002 84.8597 12.6553 84.8597 14.5655V17.1203C84.8597 17.8128 84.8836 18.3619 84.9552 18.7679L83.5942 18.7201ZM83.3793 15.2818C81.6602 15.2818 80.8245 15.6877 80.8245 16.6667C80.8245 17.383 81.2781 17.7411 81.8751 17.7411C82.663 17.7411 83.3793 17.1442 83.3793 16.3324C83.3793 16.3563 83.3793 15.2818 83.3793 15.2818Z" fill="white"/>
<path d="M88.2981 10.6496C87.7967 10.6496 87.3907 10.2437 87.3907 9.71837C87.3907 9.19307 87.7967 8.81104 88.322 8.81104C88.8473 8.81104 89.277 9.19307 89.2532 9.71837C89.277 10.2914 88.8711 10.6496 88.2981 10.6496ZM89.086 18.7201H87.5579V11.7957H89.086V18.7201Z" fill="white"/>
<path d="M93.3599 18.7202H91.8318V8.62012H93.3599V18.7202Z" fill="white"/>
<path d="M99.9023 18.7201L99.783 17.9322H99.7352C99.2577 18.5768 98.5891 18.8872 97.7056 18.8872C96.464 18.8872 95.5806 18.0277 95.5806 16.8577C95.5806 15.1385 97.061 14.2551 99.6158 14.2551V14.1357C99.6158 13.2283 99.1383 12.7747 98.1832 12.7747C97.4907 12.7747 96.8938 12.9418 96.3685 13.3L96.0581 12.2971C96.7028 11.8912 97.4907 11.7002 98.4458 11.7002C100.261 11.7002 101.168 12.6553 101.168 14.5655V17.1203C101.168 17.8128 101.192 18.3619 101.263 18.7679H99.9023V18.7201ZM99.6875 15.2818C97.9683 15.2818 97.1326 15.6877 97.1326 16.6667C97.1326 17.383 97.5863 17.7411 98.1832 17.7411C98.9711 17.7411 99.6875 17.1442 99.6875 16.3324V15.2818Z" fill="white"/>
<path d="M107.424 18.8874C106.445 18.8874 105.705 18.4815 105.251 17.6696H105.227L105.131 18.7441H103.818C103.866 18.1949 103.866 17.5503 103.866 16.8817V8.64404H105.418V12.8226H105.442C105.896 12.0585 106.636 11.6765 107.639 11.6765C109.31 11.6765 110.48 13.1091 110.48 15.1864C110.48 17.3115 109.191 18.8874 107.424 18.8874ZM107.113 12.8703C106.23 12.8703 105.418 13.6344 105.418 14.7089V15.9266C105.418 16.8817 106.134 17.6696 107.089 17.6696C108.236 17.6696 108.928 16.7384 108.928 15.2342C108.928 13.8254 108.212 12.8703 107.113 12.8703Z" fill="white"/>
<path d="M114.3 18.7202H112.772V8.62012H114.3V18.7202Z" fill="white"/>
<path d="M122.681 15.6398H118.073C118.097 16.9531 118.98 17.6933 120.246 17.6933C120.938 17.6933 121.559 17.5739 122.108 17.359L122.347 18.4335C121.702 18.72 120.914 18.8633 120.031 18.8633C117.858 18.8633 116.593 17.5023 116.593 15.3772C116.593 13.2521 117.906 11.6523 119.864 11.6523C121.631 11.6523 122.753 12.9656 122.753 14.9474C122.729 15.2101 122.729 15.4488 122.681 15.6398ZM121.272 14.5415C121.272 13.467 120.723 12.7268 119.744 12.7268C118.861 12.7268 118.168 13.4909 118.073 14.5415H121.272Z" fill="white"/>
<path d="M132.017 18.8877C129.988 18.8877 128.674 17.3834 128.674 15.33C128.674 13.181 130.012 11.6768 132.137 11.6768C134.118 11.6768 135.479 13.1094 135.479 15.2345C135.456 17.3834 134.071 18.8877 132.017 18.8877ZM132.065 12.7751C130.943 12.7751 130.25 13.8257 130.25 15.2583C130.25 16.691 130.967 17.7177 132.065 17.7177C133.163 17.7177 133.88 16.5955 133.88 15.2345C133.856 13.8496 133.139 12.7751 132.065 12.7751Z" fill="white"/>
<path d="M143.717 18.72H142.189V14.7325C142.189 13.5148 141.711 12.894 140.804 12.894C139.897 12.894 139.252 13.6819 139.252 14.5892V18.72H137.724V13.7774C137.724 13.1566 137.7 12.5119 137.676 11.7956H139.037L139.109 12.8701H139.157C139.562 12.1299 140.422 11.6523 141.353 11.6523C142.81 11.6523 143.765 12.7746 143.765 14.5654L143.717 18.72Z" fill="white"/>
<path d="M153.793 12.9658H152.098V16.3325C152.098 17.1921 152.385 17.6219 153.005 17.6219C153.268 17.6219 153.507 17.598 153.698 17.5502L153.746 18.7202C153.435 18.8396 153.053 18.8874 152.552 18.8874C151.334 18.8874 150.618 18.2188 150.618 16.4758V12.9897H149.615V11.7958H150.618V10.5303L152.122 10.0767V11.7958H153.817V12.9658H153.793Z" fill="white"/>
<path d="M161.936 18.7202H160.384V14.7804C160.384 13.5388 159.906 12.918 158.999 12.918C158.211 12.918 157.47 13.4672 157.47 14.5656V18.7202H155.918V8.62012H157.47V12.7748H157.494C157.972 12.0107 158.688 11.6525 159.572 11.6525C161.028 11.6525 161.936 12.7986 161.936 14.6133V18.7202Z" fill="white"/>
<path d="M169.815 15.6398H165.183C165.207 16.9531 166.09 17.6933 167.356 17.6933C168.048 17.6933 168.669 17.5739 169.218 17.359L169.457 18.4335C168.812 18.72 168.024 18.8633 167.141 18.8633C164.968 18.8633 163.702 17.5023 163.702 15.3772C163.702 13.2521 165.016 11.6523 166.974 11.6523C168.74 11.6523 169.863 12.9656 169.863 14.9474C169.863 15.2101 169.839 15.4488 169.815 15.6398ZM168.406 14.5415C168.406 13.467 167.857 12.7268 166.878 12.7268C165.995 12.7268 165.302 13.4909 165.207 14.5415H168.406Z" fill="white"/>
<defs>
<radialGradient id="paint0_angular" cx="0" cy="0" r="1" gradientUnits="userSpaceOnUse" gradientTransform="translate(97.7415 28.3668) rotate(172.637) scale(164.89 574.45)">
<stop stop-color="#2501B3" stop-opacity="0.94"/>
<stop offset="0.958333"/>
</radialGradient>
<linearGradient id="paint1_linear" x1="52.1571" y1="-29.5204" x2="177.8" y2="70.6479" gradientUnits="userSpaceOnUse">
<stop stop-color="#373FFF"/>
<stop offset="0.59375" stop-color="#00B2FF"/>
<stop offset="1" stop-color="#797EF9"/>
</linearGradient>
</defs>
</svg>
