<svg width="138" height="44" viewBox="0 0 138 44" fill="none" xmlns="http://www.w3.org/2000/svg">
<g clip-path="url(#clip0)">
<path d="M31.6059 23.1012L37.5153 23.0711V26.4359H20.9811L48.2149 9.55132L48.185 7.52941L48.2447 3.65153C48.2295 3.27431 48.0955 2.86691 47.8563 2.42933C47.6176 1.99175 47.3045 1.59943 46.9313 1.23729C46.5581 0.890247 46.1403 0.58847 45.6779 0.362135C45.2153 0.1358 44.7825 0.0150899 44.3796 0.0150899L0.716282 0V0.0301752L0 0.0150899V25.5608L14.3406 15.4662H8.89382L8.92366 11.6487H25.9204L0.253683 28.8049L0 43.5167H11.7142V36.8926L47.961 36.9681L48.14 12.8407" fill="url(#paint0_angular)"/>
<path d="M57.825 3.78735H66.062C71.8669 3.78735 76.1794 5.82437 76.1794 11.9354C76.1794 17.8352 71.8522 20.506 66.2263 20.506H62.4657V30.2233H57.825V3.78735ZM65.838 16.7639C69.7478 16.7639 71.5983 15.1946 71.5983 11.9354C71.5983 8.64603 69.5688 7.52942 65.6741 7.52942H62.451V16.7488H65.838V16.7639ZM84.208 3.78735H89.6543L98.1751 30.2384H93.2658L89.2816 16.1603C88.4456 13.3689 87.6849 10.3511 86.9087 7.43891H86.7595C86.0433 10.3662 85.2675 13.3538 84.4467 16.1603L80.4326 30.2384H75.7019L84.208 3.78735ZM80.731 19.3894H93.0569V23.0711H80.731V19.3894ZM105.159 20.4003L97.2799 3.78735H102.234L105.084 10.5472L107.412 16.3565H107.576L109.979 10.5472L112.829 3.78735H117.664L109.785 20.4003V30.2384H105.144V20.4003H105.159Z" fill="#18559E"/>
<path d="M119.216 27.4318L131.87 7.74067H120.38V3.78735H137.601V6.60898L124.946 26.3002H137.72V30.2535H119.216V27.4318Z" fill="#00A7FB"/>
</g>
<defs>
<radialGradient id="paint0_angular" cx="0" cy="0" r="1" gradientUnits="userSpaceOnUse" gradientTransform="translate(9 30) rotate(122.957) scale(54.2264 74.7423)">
<stop offset="0.337857" stop-color="#373FFF"/>
<stop offset="0.500104" stop-color="#00B2FF"/>
<stop offset="1" stop-color="#1C24DE"/>
</radialGradient>
<clipPath id="clip0">
<rect width="137.72" height="43.6337" fill="white"/>
</clipPath>
</defs>
</svg>
