<svg width="193" height="57" viewBox="0 0 193 57" fill="none" xmlns="http://www.w3.org/2000/svg">
<path d="M7.80339 55.1099H185.294C188.635 55.1099 191.387 52.3965 191.387 49.0997V7.01003C191.387 3.71057 188.661 0.999859 185.294 0.999859H7.80339C4.43639 0.999859 1.71069 3.71057 1.71069 7.01003V49.0997C1.71069 52.3992 4.43639 55.1099 7.80339 55.1099Z" fill="url(#paint0_angular)" stroke="url(#paint1_linear)" stroke-width="2"/>
<path d="M68.019 14.3637C68.019 15.5368 67.6716 16.4811 66.9768 17.1678C66.1662 17.9976 65.124 18.4267 63.8502 18.4267C62.6343 18.4267 61.5632 17.9976 60.7236 17.1678C59.8551 16.3094 59.4209 15.2793 59.4209 14.0204C59.4209 12.7614 59.8551 11.7313 60.7236 10.9015C61.5921 10.0718 62.6343 9.64258 63.8502 9.64258C64.4582 9.64258 65.0372 9.75702 65.5872 9.98593C66.1373 10.2148 66.6005 10.5296 66.9189 10.9302L66.1662 11.6741C65.5872 11.016 64.8345 10.6726 63.8213 10.6726C62.9238 10.6726 62.1422 10.9874 61.5053 11.6169C60.8394 12.2464 60.521 13.0475 60.521 14.049C60.521 15.0504 60.8394 15.8516 61.5053 16.4811C62.1711 17.1106 62.9528 17.4253 63.8213 17.4253C64.7766 17.4253 65.5583 17.1106 66.1952 16.4811C66.6005 16.0805 66.861 15.5082 66.9189 14.7643H63.8213V13.7628H67.9321C68.019 13.9345 68.019 14.1348 68.019 14.3637Z" fill="white" stroke="white" stroke-width="0.199309" stroke-miterlimit="10"/>
<path d="M74.5615 10.8438H70.6823V13.5048H74.1852V14.5063H70.6823V17.1673H74.5615V18.1974H69.5822V9.78516H74.5615C74.5615 9.81377 74.5615 10.8438 74.5615 10.8438Z" fill="white" stroke="white" stroke-width="0.199309" stroke-miterlimit="10"/>
<path d="M79.1936 18.2267H78.0935V10.8445H75.7196V9.81445H81.5675V10.8445H79.1936V18.2267Z" fill="white" stroke="white" stroke-width="0.199309" stroke-miterlimit="10"/>
<path d="M85.7941 18.2267V9.81445H86.8942V18.2267H85.7941Z" fill="white" stroke="white" stroke-width="0.199309" stroke-miterlimit="10"/>
<path d="M91.7578 18.2267H90.6577V10.8445H88.2838V9.81445H94.1317V10.8445H91.7578V18.2267Z" fill="white" stroke="white" stroke-width="0.199309" stroke-miterlimit="10"/>
<path d="M105.219 17.139C104.38 17.9974 103.338 18.4266 102.093 18.4266C100.848 18.4266 99.8057 17.9974 98.9662 17.139C98.1266 16.2806 97.7213 15.2505 97.7213 14.0202C97.7213 12.7898 98.1266 11.7311 98.9662 10.9014C99.8057 10.043 100.848 9.61377 102.093 9.61377C103.338 9.61377 104.38 10.043 105.219 10.9014C106.059 11.7597 106.493 12.7898 106.493 14.0202C106.464 15.2505 106.059 16.2806 105.219 17.139ZM99.7767 16.4236C100.414 17.0531 101.166 17.3679 102.093 17.3679C102.99 17.3679 103.772 17.0531 104.409 16.4236C105.046 15.7942 105.364 14.993 105.364 13.9915C105.364 12.9901 105.046 12.1889 104.409 11.5594C103.772 10.93 103.019 10.6152 102.093 10.6152C101.166 10.6152 100.414 10.93 99.7767 11.5594C99.1398 12.1889 98.8214 12.9901 98.8214 13.9915C98.8214 14.993 99.1398 15.7942 99.7767 16.4236Z" fill="white" stroke="white" stroke-width="0.199309" stroke-miterlimit="10"/>
<path d="M107.999 18.2267V9.81445H109.33L113.47 16.3668H113.528L113.47 14.7359V9.81445H114.57V18.2267H113.441L109.099 11.3596H109.041L109.099 12.9905V18.2267H107.999Z" fill="white" stroke="white" stroke-width="0.199309" stroke-miterlimit="10"/>
<path d="M97.4319 30.5012C94.1027 30.5012 91.3814 33.0191 91.3814 36.4813C91.3814 39.9148 94.1027 42.4614 97.4319 42.4614C100.761 42.4614 103.511 39.9148 103.511 36.4813C103.511 33.0191 100.79 30.5012 97.4319 30.5012ZM97.4319 40.0865C95.6081 40.0865 94.0158 38.5986 94.0158 36.4813C94.0158 34.3353 95.5791 32.876 97.4319 32.876C99.2847 32.876 100.848 34.3353 100.848 36.4813C100.848 38.5986 99.2557 40.0865 97.4319 40.0865ZM84.2308 30.5012C80.9016 30.5012 78.1803 33.0191 78.1803 36.4813C78.1803 39.9148 80.9016 42.4614 84.2308 42.4614C87.56 42.4614 90.2813 39.9148 90.2813 36.4813C90.2813 33.0191 87.56 30.5012 84.2308 30.5012ZM84.2308 40.0865C82.407 40.0865 80.8147 38.5986 80.8147 36.4813C80.8147 34.3353 82.407 32.876 84.2308 32.876C86.0546 32.876 87.6469 34.3353 87.6469 36.4813C87.6179 38.5986 86.0546 40.0865 84.2308 40.0865ZM68.4821 32.3324V34.879H74.6195C74.4458 36.3096 73.9536 37.3397 73.2299 38.055C72.3324 38.942 70.9428 39.9148 68.4821 39.9148C64.7186 39.9148 61.7658 36.9105 61.7658 33.1908C61.7658 29.4711 64.7186 26.4667 68.4821 26.4667C70.5086 26.4667 72.014 27.2679 73.1141 28.2694L74.909 26.4954C73.3746 25.0361 71.3481 23.9488 68.4821 23.9488C63.3001 23.9488 58.9576 28.0977 58.9576 33.2194C58.9576 38.3411 63.3001 42.49 68.4821 42.49C71.2902 42.49 73.3746 41.5744 75.0248 39.8862C76.7039 38.2267 77.2539 35.8518 77.2539 33.9633C77.2539 33.3625 77.196 32.8188 77.1091 32.3896C77.1091 32.3324 68.4821 32.3324 68.4821 32.3324ZM132.809 34.3067C132.316 32.9619 130.782 30.5012 127.627 30.5012C124.529 30.5012 121.923 32.9333 121.923 36.4813C121.923 39.829 124.471 42.4614 127.916 42.4614C130.695 42.4614 132.287 40.8018 132.953 39.829L130.898 38.4842C130.203 39.4856 129.277 40.1437 127.916 40.1437C126.584 40.1437 125.6 39.5429 124.992 38.3411L133.069 35.0506C133.098 34.9648 132.809 34.3067 132.809 34.3067ZM124.587 36.281C124.529 33.992 126.382 32.7902 127.742 32.7902C128.785 32.7902 129.682 33.3052 130 34.0492C129.971 34.0778 124.587 36.281 124.587 36.281ZM118.015 42.0894H120.679V24.5497H118.015V42.0894ZM113.673 31.8174H113.586C112.978 31.1307 111.849 30.5012 110.401 30.5012C107.391 30.5012 104.611 33.1336 104.611 36.4813C104.611 39.829 107.391 42.4328 110.401 42.4328C111.849 42.4328 112.978 41.8033 113.586 41.088H113.673V41.9464C113.673 44.2354 112.428 45.4657 110.459 45.4657C108.838 45.4657 107.825 44.3212 107.42 43.3484L105.104 44.2926C105.769 45.8663 107.535 47.812 110.459 47.812C113.586 47.812 116.191 46.0094 116.191 41.603V30.8731H113.673V31.8174ZM110.633 40.0865C108.809 40.0865 107.275 38.57 107.275 36.4813C107.275 34.3639 108.809 32.8474 110.633 32.8474C112.428 32.8474 113.846 34.3925 113.846 36.4813C113.846 38.57 112.428 40.0865 110.633 40.0865ZM145.257 24.5211H138.917V42.0608H141.551V35.4226H145.257C148.21 35.4226 151.076 33.3052 151.076 29.9861C151.076 26.6384 148.181 24.5211 145.257 24.5211ZM145.315 32.9905H141.551V26.9818H145.315C147.283 26.9818 148.412 28.6127 148.412 29.9861C148.412 31.3309 147.283 32.9905 145.315 32.9905ZM161.7 30.4726C159.79 30.4726 157.792 31.3023 156.982 33.1622L159.327 34.135C159.819 33.1622 160.774 32.8474 161.758 32.8474C163.119 32.8474 164.537 33.6772 164.537 35.1079V35.2795C164.045 34.9934 163.032 34.5928 161.758 34.5928C159.24 34.5928 156.634 35.9663 156.634 38.5414C156.634 40.8877 158.719 42.4042 161.035 42.4042C162.829 42.4042 163.814 41.603 164.422 40.6874H164.509V42.0322H167.056V35.3081C167.085 32.2179 164.74 30.4726 161.7 30.4726ZM161.382 40.0865C160.513 40.0865 159.298 39.6573 159.298 38.5986C159.298 37.2538 160.803 36.7102 162.106 36.7102C163.264 36.7102 163.814 36.9677 164.537 37.3111C164.306 38.942 162.916 40.0865 161.382 40.0865ZM176.407 30.8445L173.367 38.4556H173.28L170.125 30.8445H167.259L171.978 41.4599L169.285 47.3828H172.064L179.36 30.8445H176.407ZM152.523 42.0894H155.187V24.5497H152.523V42.0894Z" fill="white"/>
<path d="M15.504 10.5582C15.0987 10.9874 14.8381 11.6741 14.8381 12.5325V43.5776C14.8381 44.4359 15.0697 45.1227 15.504 45.5519L15.6198 45.6377L33.2212 28.241V27.8404L15.6198 10.4438L15.504 10.5582Z" fill="url(#paint2_linear)"/>
<path d="M39.0692 34.0493L33.2213 28.2409V27.8403L39.0981 22.0319L39.2429 22.1177L46.1908 26.0377C48.1594 27.1536 48.1594 28.9848 46.1908 30.1007L39.2429 33.9921C39.2139 33.9635 39.0692 34.0493 39.0692 34.0493Z" fill="url(#paint3_linear)"/>
<path d="M39.2139 33.9634L33.2213 28.0405L15.533 45.5231C16.1988 46.2098 17.2699 46.2956 18.4858 45.6089L39.2139 33.9634Z" fill="url(#paint4_linear)"/>
<path d="M39.2139 22.1176L18.4569 10.4722C17.241 9.78547 16.1699 9.8713 15.504 10.558L33.1923 28.0405L39.2139 22.1176Z" fill="url(#paint5_linear)"/>
<defs>
<radialGradient id="paint0_angular" cx="0" cy="0" r="1" gradientUnits="userSpaceOnUse" gradientTransform="translate(96.5489 28.0549) rotate(139.916) scale(131.144 447.998)">
<stop offset="0.333333" stop-color="#0A4AAB"/>
<stop offset="0.833333"/>
</radialGradient>
<linearGradient id="paint1_linear" x1="51.8521" y1="85.9405" x2="176.92" y2="-11.8306" gradientUnits="userSpaceOnUse">
<stop stop-color="#373FFF"/>
<stop offset="0.59375" stop-color="#00B2FF"/>
<stop offset="1" stop-color="#797EF9"/>
</linearGradient>
<linearGradient id="paint2_linear" x1="31.643" y1="43.8885" x2="2.48392" y2="14.0378" gradientUnits="userSpaceOnUse">
<stop stop-color="#00A0FF"/>
<stop offset="0.0066" stop-color="#00A1FF"/>
<stop offset="0.2601" stop-color="#00BEFF"/>
<stop offset="0.5122" stop-color="#00D2FF"/>
<stop offset="0.7604" stop-color="#00DFFF"/>
<stop offset="1" stop-color="#00E3FF"/>
</linearGradient>
<linearGradient id="paint3_linear" x1="48.7331" y1="28.0425" x2="5.68237" y2="28.0425" gradientUnits="userSpaceOnUse">
<stop stop-color="#FFE000"/>
<stop offset="0.4087" stop-color="#FFBD00"/>
<stop offset="0.7754" stop-color="#FFA500"/>
<stop offset="1" stop-color="#FF9C00"/>
</linearGradient>
<linearGradient id="paint4_linear" x1="24.0942" y1="36.5306" x2="-15.4479" y2="-3.94938" gradientUnits="userSpaceOnUse">
<stop stop-color="#FF3A44"/>
<stop offset="1" stop-color="#C31162"/>
</linearGradient>
<linearGradient id="paint5_linear" x1="-0.793921" y1="44.1552" x2="16.8634" y2="26.0792" gradientUnits="userSpaceOnUse">
<stop stop-color="#32A071"/>
<stop offset="0.0685" stop-color="#2DA771"/>
<stop offset="0.4762" stop-color="#15CF74"/>
<stop offset="0.8009" stop-color="#06E775"/>
<stop offset="1" stop-color="#00F076"/>
</linearGradient>
</defs>
</svg>
